/* XPM */
static char *default[] = {
/* columns rows colors chars-per-pixel */
"48 48 256 2",
"   c #5E1F19",
".  c #661D17",
"X  c #7A1A11",
"o  c #492E1A",
"O  c #5B2719",
"+  c #4E3D1E",
"@  c #6F341C",
"#  c #763418",
"$  c #672112",
"%  c #5D2D20",
"&  c #593C25",
"*  c #4C3F24",
"=  c #642924",
"-  c #6C3A2D",
";  c #773429",
":  c #6F3D39",
">  c #03531E",
",  c #18441A",
"<  c #055620",
"1  c #0A5724",
"2  c #055A22",
"3  c #0A5A25",
"4  c #345C2A",
"5  c #3D4D24",
"6  c #0A6227",
"7  c #0A6628",
"8  c #0B6B2A",
"9  c #066325",
"0  c #0D762D",
"q  c #0C7A2E",
"w  c #117E2F",
"e  c #0B7E30",
"r  c #157D32",
"t  c #366F36",
"y  c #5B431F",
"u  c #734B1C",
"i  c #69511F",
"p  c #766C1E",
"a  c #484523",
"s  c #534120",
"d  c #555427",
"f  c #545B34",
"g  c #684827",
"h  c #765A28",
"j  c #664835",
"k  c #71572D",
"l  c #426B29",
"z  c #4C642A",
"x  c #497638",
"c  c #577B37",
"v  c #4D6F2E",
"b  c #69722E",
"n  c #346C45",
"m  c #7A544D",
"M  c #677354",
"N  c #8E0F0E",
"B  c #9C0C0C",
"V  c #8B1911",
"C  c #AE0809",
"Z  c #A50A0A",
"A  c #BA0809",
"S  c #A31617",
"D  c #B21818",
"F  c #A81B0C",
"G  c #872816",
"H  c #932E19",
"J  c #982B16",
"K  c #873817",
"L  c #963618",
"P  c #AA2913",
"I  c #A52915",
"U  c #BA2B14",
"Y  c #AA3614",
"T  c #B63513",
"R  c #882723",
"E  c #933328",
"W  c #AF3634",
"Q  c #C40808",
"!  c #D90B07",
"~  c #C71A0D",
"^  c #D6150A",
"/  c #C71915",
"(  c #DD1716",
")  c #E30606",
"_  c #EC0505",
"`  c #E40A07",
"'  c #E50B0B",
"]  c #E51A1A",
"[  c #CB240F",
"{  c #C02911",
"}  c #DB2C2C",
"|  c #95441B",
" . c #8A6B18",
".. c #A67F11",
"X. c #824023",
"o. c #835038",
"O. c #97612F",
"+. c #B27B22",
"@. c #805854",
"#. c #87625F",
"$. c #8C7E70",
"%. c #8E786E",
"&. c #A36D6B",
"*. c #C94D4D",
"=. c #12832F",
"-. c #0B8331",
";. c #0C8B33",
":. c #138331",
">. c #1C8D36",
",. c #1A8835",
"<. c #0B9436",
"1. c #0D9937",
"2. c #0D9D38",
"3. c #179739",
"4. c #1C943A",
"5. c #129E39",
"6. c #149537",
"7. c #23953C",
"8. c #289B3E",
"9. c #2E8E35",
"0. c #0AAB3B",
"q. c #0AA339",
"w. c #15A13B",
"e. c #1AA43C",
"r. c #13AC3B",
"t. c #1BAB3C",
"y. c #24A93B",
"u. c #2DAE3A",
"i. c #27A537",
"p. c #32AE39",
"a. c #34AB3A",
"s. c #3CB13C",
"d. c #38B530",
"f. c #499339",
"g. c #708F2F",
"h. c #43B33B",
"j. c #49B638",
"k. c #4CB935",
"l. c #56C32C",
"z. c #59C629",
"x. c #368A44",
"c. c #299946",
"v. c #3D9D53",
"b. c #1DA443",
"n. c #1BAA44",
"m. c #23AA44",
"M. c #2DAB44",
"N. c #24A54A",
"B. c #29A74E",
"V. c #2DA94D",
"C. c #27A743",
"Z. c #34AD42",
"A. c #33AC4A",
"S. c #39AE49",
"D. c #34A648",
"F. c #3AB149",
"G. c #28A651",
"H. c #2DA952",
"J. c #38AE55",
"K. c #3AB354",
"L. c #559251",
"P. c #648F52",
"I. c #42B34D",
"U. c #4DB640",
"Y. c #57B248",
"T. c #52AB5B",
"R. c #45B452",
"E. c #4AB355",
"W. c #4BB55E",
"Q. c #4CB95B",
"!. c #43B35A",
"~. c #4EB452",
"^. c #66AA58",
"/. c #4EB363",
"(. c #4DBA62",
"). c #48B266",
"_. c #55BC6C",
"`. c #55B669",
"'. c #53B572",
"]. c #55BB73",
"[. c #5CBC79",
"{. c #5CBB76",
"}. c #58A769",
"|. c #68A368",
" X c #59C16C",
".X c #56C174",
"XX c #59C277",
"oX c #5CC37B",
"OX c #61C37E",
"+X c #61C377",
"@X c #76C57D",
"#X c #9C9F1C",
"$X c #BE9F0D",
"%X c #B18610",
"&X c #88A21C",
"*X c #96AA1E",
"=X c #BEB812",
"-X c #ADAD15",
";X c #93A522",
":X c #D6A70D",
">X c #C8A512",
",X c #F6A806",
"<X c #F3A707",
"1X c #EAA508",
"2X c #C48320",
"3X c #B9C713",
"4X c #A3C217",
"5X c #CBC60D",
"6X c #D1C90C",
"7X c #DDD20A",
"8X c #D5D80B",
"9X c #E4D708",
"0X c #FBE702",
"qX c #F6E403",
"wX c #E9E106",
"eX c #80B67F",
"rX c #63BF81",
"tX c #71B685",
"yX c #7ABF90",
"uX c #64C583",
"iX c #6BC486",
"pX c #6DC689",
"aX c #6CCB8C",
"sX c #66C787",
"dX c #73C68C",
"fX c #75C789",
"gX c #6FCC90",
"hX c #7BC693",
"jX c #70CD92",
"kX c #7AC996",
"lX c #7EC999",
"zX c #76C790",
"xX c #89BC95",
"cX c #86B796",
"vX c #97BAA2",
"bX c #ACBEB0",
"nX c #B5B5B5",
"mX c #B0B8B4",
"MX c #ADB9AF",
"NX c #81C496",
"BX c #83C99B",
"VX c #88C99D",
"CX c #8CCDA1",
"ZX c #9BC6A9",
"AX c #94D4A8",
"SX c #9BD4AD",
"DX c #92D2A6",
"FX c #9ED9B1",
"GX c #8ED3A5",
"HX c #A3C2AC",
"JX c #A8C6B3",
"KX c #A3DAB5",
"LX c #A9D0B7",
"PX c #B0C8B5",
"IX c #B9E3C9",
"UX c None",
/* pixels */
"UXUXUXUXUXUXUXUXUXUXUXUXUXUXUXUXUXUXUXUXUXUXUXUXUXUXUXUXUXUXUXUXUXUXUXUXUXUXUXUXUXUXUXUXUXUXUXUX",
"UXUXUXUXUXUXUXUXUXUXUXUXUXUXUXUXfX_.!.F.K.W.+XBXUXUXUXUXUXUXUXUXUXUXUXUXUXUXUXUXUXUXUXUXUXUXUXUX",
"UXUXUXUXUXUXUXUXUXUXUXdXOXXXM.w.5.2.5.1.2.2.2.w.e.(.XXiXhXUXUXUXUXUXUXUXUXUXUXUXUXUXUXUXUXUXUXUX",
"UXUXUXUXUXUXUXUXUXuXXXXXoXuXuXiXiXpXdXdXdXpXpXiXiXuXOXoXoXoXhXUXUXUXUXUXUXUXUXUXUXUXUXUXUXUXUXUX",
"UXUXUXUXUXUXUXUX XoXkXDXAXAXAXFXFXKXKXKXKXKXFXFXFXAXAXAXVXgX[.VXUXUXUXUXUXUXUXUXUXUXUXUXUXUXUXUX",
"UXUXUXUXUXUXUXUXI.Q.oXBXGXAXAXAXAXAXAXAXAXAXAXAXAXAXDXCXzX].'.pXUXUXUXUXUXUXUXUXUXUXUXUXUXUXUXUX",
"UXUXUXUXUXUXUXUXuXA.R.rXgXjXkXkXlXlXlXBXBXlXlXlXkXjXjXjX'.R./.yXUXUXUXUXUXUXUXUXUXUXUXUXUXUXUXUX",
"UXUXUXUXUXUXUXUXhX(.B.I.uXgXjXgXgXgXjXjXjXjXgXjXjXjXjX'.S.R.'.mXUXUXUXUXUXUXUXUXUXUXUXUXUXUXUXUX",
"UXUXUXUXUXUXUXUXUXuXI.G.I.sXgXgXjXjXjXjXjXjXjXjXjXgX_.A.S.'.yXnXUXUXUXUXUXUXUXUXUXUXUXUXUXUXUXUX",
"UXUXUXUXUXUXUXUXUXUXoXS.G.I.aXgXjXjXjXjXjXjXjXjXjX_.V.V.'.{.nXnXUXUXUXUXUXUXUXUXUXUXUXUXUXUXUXUX",
"UXUXUXUXUXUXUXUXUXUXdX].A.G.I.aXjXjXjXjXjXjXjXjX XB.G.R.'.vXnXnXUXUXUXUXUXUXUXUXUXUXUXUXUXUXUXUX",
"UXUXUXBXhXzXdXpXOX[.].'.`.V.G.I.gXjXjXjXjXjXjX(.B.B.G.A.S.E.{.hXBXUXUXUXUXUXUXUXUXUXUXUXUXUXUXUX",
"UXUXuX.XF.S.A.F.F.E.).'.'._.A.G. XjXjXjXjXjXgXK.F.A.V.G.G.G.G.A.Q.XXUXUXUXUXUXUXUXUXUXUXUXUXUXUX",
"UXpXK.V.A.I.[.pXhXCXCXBXlXkXjXOXjXjXjXjXjXgXjXaXiXuXuXsX`.I.A.G.G.R.pXUXUXUXUXUXUXUXUXUXUXUXUXUX",
"UXJ.5.V.OXkXkXlXlXBXBXBXlXlXjXjXjXjXjXjXjXjXjXjXgXjXjXjXjXjXdX XA.N.!.UXUXUXUXUXUXUXUXUXUXUXUXUX",
"UXN.<.F.aXgXgXgXjXjXjXjXgXgXgXjXjXjXjXjXjXjXjXgXjXjXjXjXjXgXgXoX Xw.m.nXUXUXUXUXUXKXUXUXUXUXUXUX",
"UXb.<.F.aXjXjXjXjXjXjXjXjXjXjXjXjXjXjXjXjXjXgXjXjXjXjXjXjXgXsX.X(.q.r.cXUXUXUXSXCXfXZXLXUXUXUXUX",
"UXb.<.m.oXgXjXjXjXjXjXjXjXjXjXjXjXjXjXjXjXgXjXjXjXjXjXaXuXoX(.I.r.2.w.[.UXUX[.W.V.G.A.xXUXUXUXUX",
"UXw.<.e..XoXaXaXgXjXgXjXjXjXjXjXjXjXjXjXgXgXaXaXuX(.I.F.A.B.n.r.0.2.5.W.LXSXR.C.Z.S.G.S.UXUXUXUX",
"UXe.<.w..X.X.XQ.V.G..XjXjXjXjXjXjXjXjXjXaXoXE.A.m.n.t.r.0.0.0.0.0.2.<.M.R.C.2.F.aXjXG.C.HXUXUXUX",
"UXy.<.5.]._.I.G.G.G.V.(.sXjXyXM M [.sX{.S.t.0.0.0.0.0.0.0.0.0.0.0.q.<.5.w.<.y.jXjXjX).r.xXUXUXUX",
"UXA.<.5.A.V.G.G.G.G.D.t '.gX& j H o.T.V.w.5.0.0.0.0.0.0.0.0.0.0.0.q.<.<.<.y.a.jXjXjX_.w.E.UXUXUX",
"UX@X5.w.A.F.I.`.!.x.% % g P.: I ) ^ 9.s + + x.r.0.0.0.0.0.0.0.0.0.0.1.1.i.p.u.W.jXjXQ.e.D.UXUXUX",
"UXUXVXjXjXVXSXIXIXd R I ~ H H _ _ _ K G K P K H.0.0.0.r.y.u.p.p.u.p.p.p.p.p.p.p.s. Xk.e.8.UXUXUX",
"UXUXUXAXGXSXUXUXUXg H _ _ _ ' _ _ _ _ _ _ _ U x.0.r.u.p.p.p.p.p.p.p.p.p.p.p.p.p.p.Z.j.5.7.nXUXUX",
"UXUXUXUXUXUXUX.   R H _ _ _ ^ Y L T _ _ _ _ K @ d a.a.p.p.p.p.p.p.p.p.p.p.p.p.p.a.h.j.6.3.nXUXUX",
"UXUXUXUXUXUXO N C I V U E d l c c v z K ! _ _ ~ J J f.p.p.p.p.p.p.p.p.p.p.a.s.h.k.j.j.6.3.nXUXUX",
"UXUXUXUXUXUXX Q _ _ U x l ;X:X,X,X,X6X4Xu ~ _ _ _ _ o.U.p.p.a.d.h.j.j.j.j.j.j.j.j.j.k.;.3.nXUXUX",
"UXUXUXUXUXUXB ) _ _ X.x :X,X,X,X:X7X0X0X8Xp _ _ _ T z T.p.h.j.j.j.j.j.j.j.j.j.j.j.j.j.:.4.nXUXUX",
"UXUXUXUXUXUXR C _ [ f >X,X,X<X>X0X0X0X0X0X5X{ _ Y x O ^.j.j.j.j.j.p.j.j.j.j.j.j.j.j.j.8 6.nXUXUX",
"UXUX,.;.c.& R D ' L f.,X,X:X8X0X0X0X0X0X0X0X ._ _ [ u P.j.j.j.j.j.1.e.s.j.j.j.j.j.j.h.9 =.nXUXUX",
"UXUX6 e 4 & I _ _ h &X1X3X0X0X0X0X0X0X0X0X0X#X_ _ _ ! g.Y.j.j.j.s.<.<.w.Z.j.j.j.j.k.h.> 0 nXUXUX",
"UX}.1 0 5 @ _ _ _ v =X7X0X0X0X0X0X0X0X0X0X0X*X_ _ _ _ | ^.j.j.j.p.<.;.<.w.Z.k.j.j.j.h.2 :.nXUXUX",
"UXc.1 q 4.# _ _ _ u 9X0X0X0X0X0X0X0X0X0X0X8Xg.` _ _ [ d ^.j.j.h.p.<.e <.;.5.s.j.k.l.p.2 4.nXUXUX",
"UX>.1 0 B.L.t K _ K 8X0X0X0X0X0X0X0X0XqX5X>Xl _ ! k O c Y.j.j.a.p.;.e J.e.0 -.h.z.z.,.0 eXnXUXUX",
"UX:.1 q G.x.s P _ ! &X0X0X0X0X0X0X0X:X:X,X .* _ _ P z |.j.j.j.Z.p.-.e '.tXC.7 0 d.l.8 <.nXUXUXUX",
"UXw 1 e B.x.@ ^ _ _ T 3X0X0X0X0X9X>X<X,X%Xa I _ _ _ 5 }.i.s.h.M.p.e q yXJXvX'.8 6 7 8 e.nXUXUXUX",
"UX0 3 -.b.9.; _ _ _ _ { -X9X6X$X<X,X,X2X: *._ _ _ _ * n i.a.p.p.p.0 q MXUXUXZXcXr 8 3.MXnXUXUXUX",
"UX0 1 ;.q.n.x J Y I _ _ U p p %X+.O.o.m } _ / ] ( E eXt w p.p.p.p.8 0 nXUXUXUXUXJXHXnXnXUXUXUXUX",
"UX0 1 ;.0.0.n.v.t i _ _ _ ` G y M &.*._ _ _ A   O m nX7 8 p.p.p.p.6 q mXUXUXUXUXUXUXUXUXUXUXUXUX",
"UX0 1 <.0.0.0.0.t.# ! _ _ _ _ _ _ _ _ _ _ _ Q   : HX,.< >.s.p.p.i.1 0 nXUXUXUXUXUXUXUXUXUXUXUXUX",
"UX0 1 <.q.0.0.0.r.v I _ ^ p ` _ _ _ W ! _ _ V = UX>.1 0 j.k.k.j.w 1 0 nXUXUXUXUXUXUXUXUXUXUXUXUX",
"UX0 6 <.<.q.t.u.d.j.b i + l K _ _ ! % Z B .   UX/.1 3 a.l.z.z.9.3 1 -.nXUXUXUXUXUXUXUXUXUXUXUXUX",
"UX0 3 7 7 6 2 < 1 > , O $ V N @ X % ; Z Z . = UXUX3 3 2 2 2 2 1 1 1 D.nXUXUXUXUXUXUXUXUXUXUXUXUX",
"UXr 3 3 1 1 > > < < o X ! _ F + . ; D ' _ A UXUXUXUX,.7 2 > 1 > 7 7.nXnXUXUXUXUXUXUXUXUXUXUXUXUX",
"UXUXUXUXUXnXmXnXnXnX- / _ _ _ &.= S ' _ _ ) S UXUXUXUXUXUXnXnXnXnXnXnXUXUXUXUXUXUXUXUXUXUXUXUXUX",
"UXUXUXUXUXUXUXUXUXUXR ' _ _ _ #.$.S _ _ _ _ A UXUXUXUXUXUXUXUXUXUXUXUXUXUXUXUXUXUXUXUXUXUXUXUXUX",
"UXUXUXUXUXUXUXUXUXUXUX_ _ _ _ UXUXUX! _ _ _ ) UXUXUXUXUXUXUXUXUXUXUXUXUXUXUXUXUXUXUXUXUXUXUXUXUX"
};
